<svg xmlns="http://www.w3.org/2000/svg"><defs><font horiz-adv-x="512"><font-face font-family="rocketglowfonts" units-per-em="512" ascent="480" descent="-32"/><glyph unicode="a" d="M481 395c-13-18-28-34-46-47v-12c0-25-3-50-11-74-7-25-18-49-33-71-14-23-32-43-52-61-21-17-45-31-74-41-29-11-60-16-92-16-52 0-99 14-142 42 7-1 14-2 22-2 43 0 81 14 115 40-20 0-38 6-54 18s-27 27-33 46c7-1 13-2 18-2 8 0 16 1 24 4-21 4-39 15-53 31-14 17-21 37-21 59v1c13-7 27-11 42-11-13 8-23 19-30 32-8 14-11 29-11 44 0 17 4 33 12 47 23-28 51-51 84-68s69-27 107-29c-2 8-3 15-3 22 0 25 9 47 27 65s40 27 66 27 49-10 67-29c21 4 40 11 59 22-7-22-21-39-41-51 18 2 35 7 53 14z"/><glyph unicode="b" d="M269 93c0 4-1 8-2 12s-1 7-2 10-3 7-5 10c-3 4-5 6-6 9l-8 8c-3 4-6 6-8 8-2 1-5 4-9 7s-7 5-9 6c-1 2-5 4-9 7-5 3-8 5-9 6-3 0-8 1-14 1-11 0-21-1-31-2-9-2-20-4-30-8-11-3-20-7-28-13-8-5-15-12-20-21s-8-19-8-31c0-13 4-24 10-34 7-11 16-19 27-24 11-6 22-11 34-13 12-3 24-5 37-5 11 0 22 1 32 4 10 2 19 6 28 11s16 12 22 21c5 9 8 19 8 31zm-35 247c0 11-1 23-4 36-4 13-8 25-14 37s-14 22-24 30-21 12-34 12c-18 0-31-7-41-20s-15-29-15-47c0-9 1-18 4-28 2-10 5-20 10-30 4-10 10-19 16-27s13-14 22-19 18-7 28-7c18 0 32 5 40 17 8 11 12 27 12 46zm-37 135h125l-39-22h-38c13-9 24-21 31-36 7-16 11-32 11-48 0-15-2-27-6-38-5-11-10-20-16-26l-19-19c-7-5-12-11-16-17-5-6-7-13-7-20 0-5 2-9 5-14s7-9 12-14c5-4 11-9 17-14 6-4 12-10 18-15 6-6 12-13 17-19 5-7 9-15 12-25 3-9 5-19 5-30 0-30-13-57-40-81-29-25-69-37-120-37-11 0-23 1-34 3-12 2-23 5-35 9-12 5-22 10-31 17s-16 15-22 25c-6 11-9 22-9 35 0 12 4 25 11 39 6 12 15 22 27 31s26 16 42 21c15 4 30 8 44 10s28 3 43 4c-12 16-18 30-18 42v7l2 6c0 1 1 3 2 6l2 6c-8-1-14-2-20-2-29 0-53 10-73 28-20 19-31 43-31 71 0 26 9 50 28 71 18 21 40 35 66 41 18 4 36 5 54 5zm297-73v-36h-73v-73h-37v73h-73v36h73v73h37v-73z"/><glyph unicode="c" d="M292 353h74l-9-81h-65v-235h-97v235h-49v81h49v49c0 35 8 61 24 79 17 18 44 26 81 26h65v-81h-40c-8 0-14 0-18-2-5-1-8-3-10-6-2-4-3-7-4-10 0-3-1-8-1-14z"/><glyph unicode="d" d="M475 256c0-48-14-91-41-129-28-38-64-65-109-79-5-1-8-1-11 2-2 2-3 5-3 8v61c0 18-5 32-15 40 11 1 20 3 29 5 9 3 18 6 27 11 9 6 17 12 23 19 6 8 11 18 15 30 4 13 6 27 6 43 0 23-8 43-23 59 7 18 7 37-2 59-5 1-13 0-23-4-10-3-19-8-26-12l-11-7c-18 5-36 7-55 7s-37-2-55-7c-3 2-7 5-12 8s-13 6-24 11c-11 4-19 5-24 4-9-22-9-41-2-59-15-16-23-36-23-59 0-16 2-30 6-42 4-13 9-23 15-30 6-8 14-14 23-20 9-5 18-8 27-11 8-2 18-4 29-5-8-7-12-17-14-29-4-2-8-4-13-5-4-1-10-1-16-1s-13 2-19 6-11 10-16 18c-3 6-8 11-14 15-5 4-10 6-14 7l-5 1c-4 0-7-1-9-2-1-1-2-2-1-3 0-1 1-3 2-4 2-1 3-2 4-3l2-2c4-2 8-5 13-11 4-5 7-10 9-14l2-7c3-7 7-13 13-17 6-5 12-8 19-9s14-2 20-2 12 0 16 1l6 1c0-7 0-16 1-25v-16c0-3-2-6-4-8-2-3-6-3-11-2-45 14-81 41-109 79-27 38-41 81-41 129 0 40 9 77 29 110 20 34 46 60 80 80 33 20 70 29 110 29s77-9 110-29c34-20 60-46 80-80 20-33 29-70 29-110z"/><glyph unicode="e" d="M136 333v-283h-94v283zm6 88c0-14-4-26-14-35s-23-14-39-14-29 5-38 14c-10 9-14 21-14 35s4 26 14 35 23 14 39 14 28-5 38-14c9-9 14-21 14-35zm333-208v-163h-94v152c0 20-3 35-11 47-8 11-20 17-36 17-12 0-22-4-30-10-9-7-15-15-19-25-2-5-3-13-3-23v-158h-94c1 76 1 138 1 185v85l-1 13h94v-41c4 6 7 12 11 16 4 5 10 10 17 15 6 5 15 10 24 13 10 3 21 4 33 4 33 0 59-11 79-32 20-22 29-54 29-95z"/><glyph unicode="f" d="M378 341l4 50h-252l13-152h175l-6-65-57-15-56 15-3 40h-50l6-80 103-28h2l102 28 14 156h-184l-4 51zm-323 134h402l-36-410-166-47-164 47z"/><glyph unicode="g" d="M79 475h430l-76-380-230-77-200 77 21 101h85l-9-42 121-46 139 46 19 97h-345l17 85h345l11 55h-345z"/><glyph unicode="h" d="M314 157v-61c0-12-4-19-11-19-5 0-9 2-13 6v86c4 5 8 7 13 7 7 0 11-7 11-19zm97-1v-13h-26v13c0 13 4 20 13 20 8 0 13-7 13-20zm-276 63h30v26h-89v-26h30v-163h29zm82-163h25v141h-25v-108c-6-8-11-12-16-12-4 0-6 2-6 6-1 1-1 4-1 10v104h-25v-112c0-9 1-16 2-20 2-7 8-11 17-11s19 6 29 17zm122 42v57c0 13 0 23-2 28-3 11-10 16-20 16s-19-5-27-16v62h-25v-189h25v14c9-11 17-16 27-16s17 5 20 16c2 5 2 14 2 28zm97 3v4h-26c0-10 0-16-1-18-1-6-5-10-11-10-9 0-13 7-13 20v25h51v29c0 15-3 26-8 33-7 10-17 15-30 15s-23-5-31-15c-5-7-8-18-8-33v-49c0-15 3-26 9-33 7-10 17-15 31-15 13 0 24 5 30 15 4 5 6 10 6 16 1 1 1 7 1 16zm-174 261v60c0 13-4 20-12 20s-12-7-12-20v-60c0-13 4-20 12-20s12 7 12 20zm206-215c0-44-3-77-8-100-2-11-8-20-16-28-9-7-18-12-29-13-35-4-88-6-159-6s-124 2-159 6c-11 1-20 6-29 13-8 8-14 17-16 28-5 22-8 55-8 100s3 78 8 100c2 12 8 21 16 29 9 7 18 12 30 13 35 4 87 6 158 6s124-2 159-6c11-1 20-6 29-13 8-8 14-17 16-29 5-21 8-54 8-100zm-285 365h29l-35-114v-77h-28v77c-3 14-9 34-18 61-7 19-13 37-18 53h30l20-75zm105-95v-50c0-16-2-27-8-34-7-10-17-14-30-14s-23 4-30 14c-5 7-8 19-8 34v50c0 15 3 26 8 33 7 10 17 15 30 15s23-5 30-15c6-7 8-18 8-33zm96 46v-142h-26v15c-10-12-20-17-29-17s-15 3-17 10c-2 5-3 12-3 22v112h26v-105c0-6 1-9 1-10 0-4 2-6 6-6 5 0 10 4 16 12v109z"/><glyph unicode="i" d="M453 165c-8-24-19-48-35-72-25-37-49-56-74-56-9 0-22 3-40 10-16 6-30 9-43 9-11 0-25-3-40-10-16-6-28-9-38-9-29 0-58 24-86 74-28 49-42 97-42 143 0 44 11 79 32 107s49 41 81 41c14 0 31-3 51-8 20-6 33-9 39-9 9 0 22 3 41 10 20 6 36 10 50 10 22 0 43-7 60-19 10-7 20-16 30-29-15-12-26-24-32-33-13-18-19-38-19-59 0-24 7-45 20-64s28-31 45-36zm-108 335c0-12-2-25-8-39s-14-27-26-39c-11-11-21-17-31-21-7-2-17-4-30-5 1 29 8 53 22 74 14 20 38 34 72 42v-3c1-2 1-3 1-3v-6z"/><glyph unicode="j" d="M196 374c3 0 5 1 8 3 2 2 3 5 3 8s-1 6-3 8c-3 2-5 3-8 3s-6-1-8-3-3-5-3-8 1-6 3-8 5-3 8-3zm120 0c3 0 6 1 8 3s3 5 3 8-1 6-3 8-5 3-8 3-5-1-8-3c-2-2-3-5-3-8s1-6 3-8c3-2 5-3 8-3zm-232-53c8 0 15-2 21-8s8-13 8-21v-123c0-8-2-15-8-20-6-6-13-9-21-9s-15 3-21 9c-5 5-8 12-8 20v123c0 8 3 15 8 21 6 6 13 8 21 8zm303-5v-190c0-9-3-16-9-23-6-6-13-9-22-9h-21v-65c0-8-3-15-9-20-6-6-13-9-21-9s-15 3-21 9c-5 5-8 12-8 20v65h-40v-65c0-8-3-15-8-20-6-6-13-9-21-9s-15 3-21 9c-5 5-8 12-8 20l-1 65h-21c-8 0-16 3-22 9-6 7-9 14-9 23v190zm-66 116c20-11 37-25 49-44s18-39 18-62h-264c0 23 6 43 18 62s29 33 49 44l-20 37c-1 3-1 5 1 6 3 1 5 0 6-2l21-38c18 8 37 12 57 12s39-4 57-12l21 38c1 2 3 3 6 2 2-1 2-3 1-6zm136-140v-123c0-8-3-15-8-20-6-6-13-9-21-9s-15 3-21 9c-6 5-8 12-8 20v123c0 8 2 15 8 21s13 8 21 8 15-2 21-8c5-6 8-13 8-21z"/><glyph unicode="k" d="M213 225v-186l-195 26v160zm0 212v-188h-195v161zm281-212v-225l-259 36v189zm0 250v-226h-259v191z"/><glyph unicode="l" d="M372 208c0 10-2 19-6 26-4 8-8 15-14 20-5 5-12 10-21 14-8 4-16 7-23 10-7 2-16 4-25 6l-30 7c-6 1-10 2-12 3-3 1-6 2-10 3-4 2-7 3-9 5l-5 6c-1 2-2 5-2 9 0 14 14 22 41 22 8 0 16-2 22-4 7-2 12-5 16-8s7-6 11-10c3-3 7-6 11-8s9-3 14-3c9 0 16 3 21 9 6 6 8 13 8 22 0 10-5 20-16 28-10 9-24 15-40 20-17 4-34 6-52 6-13 0-26-1-38-4s-23-8-34-14-19-14-25-25c-7-10-10-22-10-36 0-12 2-22 5-31 4-8 9-16 16-21 7-6 15-11 23-14 8-4 18-7 30-9l41-11c18-4 28-7 32-10 7-4 10-10 10-17 0-8-4-14-12-19-7-4-17-7-30-7-10 0-18 2-26 5s-14 6-19 11c-4 4-9 8-13 13-4 4-8 8-13 11-4 3-10 4-15 4-10 0-17-3-22-8-5-6-7-13-7-22 0-17 12-32 35-45 23-12 51-19 83-19 14 0 27 2 40 6 13 3 24 8 35 15s19 16 25 27c7 11 10 23 10 37zm103-62c0-30-10-56-32-77-21-22-47-32-77-32-25 0-47 7-67 22-15-3-29-4-43-4-27 0-53 5-78 16-25 10-46 25-64 43s-33 39-43 64c-11 25-16 51-16 78 0 14 1 28 4 43-15 20-22 42-22 67 0 30 10 56 32 77 21 22 47 32 77 32 25 0 47-7 67-22 15 3 29 4 43 4 27 0 53-5 78-16 25-10 46-25 64-43s33-39 43-64c11-25 16-51 16-78 0-14-1-28-4-43 15-20 22-42 22-67z"/><glyph unicode="m" d="M119 375c0 10-3 18-10 25-6 6-14 10-24 10-9 0-17-4-24-10-6-7-10-15-10-25 0-9 4-17 10-24 7-6 15-10 24-10 10 0 18 4 24 10 7 7 10 15 10 24zm285-153c0-10-3-18-10-24l-131-131c-7-7-15-10-24-10s-17 3-24 10l-191 191c-6 6-12 15-17 27-5 11-7 21-7 31v111c0 9 3 17 10 24 7 6 15 10 24 10h111c9 0 20-3 31-7 12-5 21-11 27-17l191-191c7-7 10-15 10-24zm102 0c0-10-3-18-9-24l-131-131c-7-7-15-10-25-10-6 0-11 1-15 4-4 2-9 6-15 12l126 125c6 6 10 14 10 24 0 9-4 17-10 24l-191 191c-7 6-16 12-27 17-11 4-22 7-31 7h59c10 0 20-3 32-7 11-5 20-11 27-17l191-191c6-7 9-15 9-24z"/><glyph unicode="n" d="M402 293c0-27-9-51-27-74-17-22-42-40-73-53s-64-20-101-20c-16 0-33 2-50 5-24-17-50-29-80-37-6-1-15-3-24-4h-1c-2 0-4 0-6 2s-3 4-3 6v5l1 2 1 1c1 1 1 2 1 2s1 0 1 1l2 2c1 1 3 3 6 7 4 3 6 6 8 8 1 2 3 5 6 8 3 4 5 8 7 11 2 4 4 8 6 13-24 14-42 31-56 51-13 20-20 41-20 64 0 26 9 51 27 73s42 40 73 53 65 20 101 20c37 0 70-7 101-20s56-31 73-53c18-22 27-47 27-73zm110-74c0-22-7-44-20-64-14-20-32-36-56-50 2-5 4-9 6-13s4-7 7-11c3-3 5-6 6-8 2-2 4-5 8-8 3-4 5-6 6-8 1 0 1 0 2-1 0-1 1-1 1-1l1-2 1-1 1-2v-1c1-2 1-2 0-2v-2c0-3-2-5-4-6-1-2-4-3-6-2-9 1-18 2-24 4-30 8-56 20-80 37-17-3-34-5-50-5-52 0-97 13-135 38 11-1 19-1 25-1 31 0 60 4 88 13 29 8 54 20 76 36 24 18 42 38 55 61 12 23 19 47 19 73 0 14-2 29-7 43 25-14 44-30 59-51 14-20 21-42 21-66z"/><glyph unicode="o" d="M146 155v-54c0-8-2-15-8-20-5-5-12-8-19-8h-92c-7 0-14 3-19 8s-8 12-8 20v54c0 8 3 15 8 20s12 8 19 8h92c7 0 14-3 19-8 6-5 8-12 8-20zm0 147v-55c0-8-2-14-8-20-5-5-12-8-19-8h-92c-7 0-14 3-19 8-5 6-8 12-8 20v55c0 7 3 14 8 19s12 8 19 8h92c7 0 14-3 19-8 6-5 8-12 8-19zm183-147v-54c0-8-3-15-8-20s-12-8-19-8h-92c-7 0-14 3-19 8s-8 12-8 20v54c0 8 3 15 8 20s12 8 19 8h92c7 0 14-3 19-8s8-12 8-20zm-183 293v-55c0-7-2-14-8-19-5-6-12-8-19-8h-92c-7 0-14 2-19 8-5 5-8 12-8 19v55c0 8 3 14 8 19 5 6 12 8 19 8h92c7 0 14-2 19-8 6-5 8-11 8-19zm183-146v-55c0-8-3-14-8-20-5-5-12-8-19-8h-92c-7 0-14 3-19 8-5 6-8 12-8 20v55c0 7 3 14 8 19s12 8 19 8h92c7 0 14-3 19-8s8-12 8-19zm183-147v-54c0-8-3-15-8-20s-12-8-19-8h-92c-7 0-14 3-19 8-6 5-8 12-8 20v54c0 8 2 15 8 20 5 5 12 8 19 8h92c7 0 14-3 19-8s8-12 8-20zm-183 293v-55c0-7-3-14-8-19-5-6-12-8-19-8h-92c-7 0-14 2-19 8-5 5-8 12-8 19v55c0 8 3 14 8 19 5 6 12 8 19 8h92c7 0 14-2 19-8 5-5 8-11 8-19zm183-146v-55c0-8-3-14-8-20-5-5-12-8-19-8h-92c-7 0-14 3-19 8-6 6-8 12-8 20v55c0 7 2 14 8 19 5 5 12 8 19 8h92c7 0 14-3 19-8s8-12 8-19zm0 146v-55c0-7-3-14-8-19-5-6-12-8-19-8h-92c-7 0-14 2-19 8-6 5-8 12-8 19v55c0 8 2 14 8 19 5 6 12 8 19 8h92c7 0 14-2 19-8 5-5 8-11 8-19z"/><glyph unicode="p" d="M430 384c0 8-3 14-8 19-6 6-12 8-20 8-7 0-14-2-19-8-5-5-8-11-8-19s3-14 8-19c5-6 12-8 19-8 8 0 14 2 20 8 5 5 8 11 8 19zm64 82c0-47-7-88-22-123-14-34-38-69-72-103-16-15-34-32-56-50l-6-108c0-3-2-6-4-8l-110-64c-1 0-3-1-5-1s-4 1-6 3l-18 18c-3 3-4 6-3 9l25 79-81 80-79-24h-2c-3 0-5 1-7 2l-18 19c-3 3-4 7-1 11l64 109c1 3 4 5 7 5l108 6c19 21 35 40 51 55 35 36 69 61 102 74 32 14 73 20 123 20 3 0 5 0 7-2s3-4 3-7z"/><glyph unicode="q" d="M238 238v-110c0-15-6-28-16-39-11-11-24-16-39-16h-110c-15 0-28 5-39 16-10 11-16 24-16 39v201c0 20 4 39 12 57s18 33 31 47c13 13 29 23 47 31s37 11 57 11h18c5 0 9-1 13-5 3-4 5-8 5-13v-36c0-5-2-10-5-13-4-4-8-6-13-6h-18c-21 0-38-7-52-21s-22-32-22-52v-9c0-8 3-14 8-19 6-6 12-8 20-8h64c15 0 28-6 39-16 10-11 16-24 16-39zm256 0v-110c0-15-6-28-16-39-11-11-24-16-39-16h-110c-15 0-28 5-39 16-10 11-16 24-16 39v201c0 20 4 39 12 57s18 33 31 47c13 13 29 23 47 31s37 11 57 11h18c5 0 9-1 13-5 3-4 5-8 5-13v-36c0-5-2-10-5-13-4-4-8-6-13-6h-18c-21 0-38-7-52-21s-22-32-22-52v-9c0-8 3-14 8-19 6-6 12-8 20-8h64c15 0 28-6 39-16 10-11 16-24 16-39z"/><glyph unicode="r" d="M238 421v-202c0-19-4-38-12-56s-18-34-31-47-29-24-47-31c-18-8-37-12-57-12h-18c-5 0-9 2-13 6-3 3-5 7-5 12v37c0 5 2 9 5 13 4 3 8 5 13 5h18c21 0 38 7 52 22 14 14 22 31 22 51v10c0 7-3 14-8 19-6 5-12 8-20 8h-64c-15 0-28 5-39 16-10 11-16 24-16 39v110c0 15 6 28 16 38 11 11 24 16 39 16h110c15 0 28-5 39-16 10-10 16-23 16-38zm256 0v-202c0-19-4-38-12-56s-18-34-31-47-29-24-47-31c-18-8-37-12-57-12h-18c-5 0-9 2-13 6-3 3-5 7-5 12v37c0 5 2 9 5 13 4 3 8 5 13 5h18c21 0 38 7 52 22 14 14 22 31 22 51v10c0 7-3 14-8 19-6 5-12 8-20 8h-64c-15 0-28 5-39 16-10 11-16 24-16 39v110c0 15 6 28 16 38 11 11 24 16 39 16h110c15 0 28-5 39-16 10-10 16-23 16-38z"/><glyph unicode="s" d="M393 475c23 0 42-8 58-24s24-35 24-58v-274c0-23-8-42-24-58s-35-24-58-24h-274c-23 0-42 8-58 24s-24 35-24 58v274c0 23 8 42 24 58s35 24 58 24zm-157-219c0 17-6 31-18 43s-26 18-43 18c-16 0-31-6-42-18-12-12-18-26-18-43s6-31 18-43c11-12 26-18 42-18 17 0 31 6 43 18s18 26 18 43zm161 0c0 17-6 31-18 43-11 12-26 18-42 18-17 0-31-6-43-18s-18-26-18-43 6-31 18-43 26-18 43-18c16 0 31 6 42 18 12 12 18 26 18 43z"/><glyph unicode="t" d="M406 475c4 0 8 0 12-2 7-3 12-7 15-12 4-5 6-11 6-18v-368c0-6-2-12-6-18-3-5-8-9-15-11-3-2-8-3-12-3-9 0-17 3-24 10l-126 121-126-121c-7-7-15-10-24-10-4 0-8 1-12 3-7 2-12 6-15 11-4 6-6 12-6 18v368c0 7 2 13 6 18 3 5 8 9 15 12 4 2 8 2 12 2z"/><glyph unicode="u" d="M421 246v-91c0-22-8-42-25-58-16-16-35-24-58-24h-237c-23 0-42 8-59 24-16 16-24 36-24 58v238c0 23 8 42 24 58 17 16 36 24 59 24h237c12 0 23-2 34-7 3-1 4-3 5-6 0-4 0-6-3-9l-14-14c-2-1-4-2-6-2h-3c-4 1-9 2-13 2h-237c-13 0-24-5-33-14s-13-19-13-32v-238c0-12 4-23 13-32s20-13 33-13h237c13 0 24 4 33 13s13 20 13 32v73c0 2 1 5 3 6l18 19c2 1 4 2 6 2h4c4-2 6-5 6-9zm66 140l-233-233c-5-4-10-6-16-6-7 0-12 2-17 6l-122 123c-5 5-7 10-7 17 0 6 2 11 7 16l31 31c5 5 10 7 16 7 7 0 12-2 17-7l75-75 185 185c4 5 10 7 16 7s12-2 16-7l32-31c4-5 6-10 6-17 0-6-2-11-6-16z"/><glyph unicode="v" d="M303 63l-186 186c-7 7-10 15-10 25 0 11 3 19 10 26l186 186c7 7 16 11 26 11s19-4 26-11l22-21c7-7 10-16 10-26s-3-19-10-26l-139-139 139-138c7-8 10-16 10-26s-3-19-10-26l-22-21c-7-7-16-11-26-11s-19 4-26 11z"/><glyph unicode="w" d="M405 274c0-10-3-18-10-26l-186-186c-7-7-16-10-26-10s-19 3-26 10l-22 22c-7 7-10 16-10 26s3 18 10 25l139 139-139 139c-7 7-10 16-10 26s3 19 10 26l22 21c7 7 16 11 26 11s19-4 26-11l186-186c7-7 10-16 10-26z"/><glyph unicode="x" d="M479 311c0-10-4-19-11-26l-186-186c-7-7-16-11-26-11s-19 4-26 11l-186 186c-7 7-11 16-11 26s4 19 11 26l21 21c8 7 17 11 26 11 11 0 19-4 26-11l139-139 139 139c7 7 15 11 26 11 9 0 18-4 26-11l21-21c7-8 11-16 11-26z"/><glyph unicode="y" d="M479 165c0-11-4-19-11-26l-21-22c-8-7-16-10-26-10-11 0-19 3-26 10l-139 139-139-139c-7-7-15-10-26-10-10 0-18 3-25 10l-22 22c-7 7-11 15-11 26 0 10 4 18 11 26l186 186c7 7 16 10 26 10s19-3 26-10l186-186c7-8 11-16 11-26z"/><glyph unicode="z" d="M399 302c0-3-1-5-3-7l-133-133c-2-2-5-3-7-3s-5 1-7 3l-133 133c-2 2-3 4-3 7 0 2 1 4 3 6l15 15c1 1 4 2 6 2 3 0 5-1 7-2l112-113 112 113c2 1 4 2 7 2 2 0 5-1 6-2l15-15c2-2 3-4 3-6z"/><glyph unicode="A" d="M344 357c0-3-1-5-3-7l-112-112 112-113c2-1 3-4 3-6 0-3-1-5-3-7l-14-14c-2-2-5-3-7-3s-5 1-7 3l-133 133c-2 2-3 4-3 7 0 2 1 4 3 6l133 133c2 2 5 3 7 3s5-1 7-3l14-14c2-2 3-4 3-6z"/><glyph unicode="B" d="M335 238c0-3-1-5-3-7l-133-133c-2-2-5-3-7-3s-5 1-7 3l-14 14c-2 2-3 4-3 7 0 2 1 5 3 6l112 113-112 112c-2 2-3 4-3 7 0 2 1 4 3 6l14 14c2 2 5 3 7 3s5-1 7-3l133-133c2-2 3-4 3-6z"/><glyph unicode="C" d="M399 174c0-3-1-5-3-7l-15-14c-1-2-4-3-6-3-3 0-5 1-7 3l-112 112-112-112c-2-2-4-3-7-3-2 0-5 1-6 3l-15 14c-2 2-3 4-3 7 0 2 1 4 3 6l133 133c2 2 5 3 7 3s5-1 7-3l133-133c2-2 3-4 3-6z"/><glyph unicode="D" d="M239 256c0 19-7 35-20 48-13 14-29 20-48 20s-35-6-49-20c-13-13-20-29-20-48s7-35 20-48c14-14 30-20 49-20s35 6 48 20c13 13 20 29 20 48zm205-137c0 10-4 18-10 24-7 7-15 11-24 11-10 0-18-4-24-11-7-6-11-14-11-24 0-9 4-17 10-24 7-6 15-10 25-10 9 0 17 4 24 10 6 7 10 15 10 24zm0 274c0 9-4 17-10 24-7 6-15 10-24 10-10 0-18-4-24-10-7-7-11-15-11-24 0-10 4-18 10-25 7-6 15-10 25-10 9 0 17 4 24 10 6 7 10 15 10 25zm-103-113v-49c0-2 0-4-2-5-1-2-2-3-4-3l-41-6c-2-7-5-13-9-21 6-8 14-18 24-30 2-2 2-4 2-6s0-4-2-5c-4-5-11-13-22-24-10-10-17-16-21-16-2 0-3 1-5 2l-31 24c-6-3-13-6-20-8-2-19-4-33-7-41-1-5-3-7-8-7h-49c-2 0-4 1-5 2-2 2-3 3-3 5l-6 41c-6 2-13 4-20 8l-32-24c-1-1-3-2-5-2s-4 1-6 3c-25 23-38 37-38 42 0 2 1 4 2 5 2 3 5 8 11 14 5 7 9 13 12 17-4 8-7 15-9 22l-41 6c-1 0-3 1-4 3-1 1-2 3-2 5v49c0 2 1 4 2 5 1 2 3 3 4 3l41 6c2 7 5 13 9 21-6 8-14 18-24 30-1 2-2 4-2 6s1 4 2 5c4 5 11 13 22 24 11 10 18 16 21 16 2 0 4-1 6-2l30-24c6 3 13 6 21 8 2 19 4 33 6 41 1 5 4 7 8 7h49c2 0 4-1 6-2 1-2 2-3 2-5l7-41c6-2 12-4 20-8l31 24c1 1 3 2 5 2s4-1 6-3c26-23 38-37 38-42 0-2 0-4-1-5l-12-15c-5-6-9-12-12-16 4-8 7-16 9-22l41-6c2 0 3-1 4-3 2-1 2-3 2-5zm171-142v-37c0-3-13-6-40-8-2-5-5-10-8-14 9-20 14-33 14-37 0-1 0-1-1-2-22-13-33-19-33-19-2 0-6 4-13 13-6 8-11 14-13 18-4-1-7-1-8-1-2 0-5 0-8 1-3-4-8-10-14-18-7-9-11-13-13-13 0 0-11 6-33 19l-1 2c0 4 5 17 14 37-3 4-6 9-8 14-27 2-40 5-40 8v37c0 3 13 6 40 8 2 6 5 10 8 14-9 20-14 33-14 37l1 2c1 0 4 2 10 5l15 9c5 3 8 5 8 5 2 0 6-5 13-13 6-8 11-14 14-18 3 1 6 1 8 1 1 0 4 0 8-1 9 13 17 23 24 30l2 1s11-7 33-19c1-1 1-1 1-2 0-4-5-17-14-37 3-4 6-8 8-14 27-2 40-5 40-8zm0 273v-37c0-3-13-6-40-8-2-5-5-10-8-14 9-20 14-33 14-37 0-1 0-1-1-2-22-13-33-19-33-19-2 0-6 4-13 13-6 8-11 14-13 18-4-1-7-1-8-1-2 0-5 0-8 1-3-4-8-10-14-18-7-9-11-13-13-13 0 0-11 6-33 19l-1 2c0 4 5 17 14 37-3 4-6 9-8 14-27 2-40 5-40 8v37c0 3 13 6 40 8 2 6 5 10 8 14-9 20-14 33-14 37l1 2c1 0 4 2 10 5 5 4 10 7 15 9 5 3 8 5 8 5 2 0 6-4 13-13 6-8 11-14 14-18 3 1 6 1 8 1 1 0 4 0 8-1 9 13 17 23 24 30l2 1s11-7 33-19c1-1 1-1 1-2 0-4-5-17-14-37 3-4 6-8 8-14 27-2 40-5 40-8z"/><glyph unicode="E" d="M256 37c-5 0-9 1-13 5l-178 172-8 7c-3 4-8 10-16 19-7 9-13 18-19 28-6 9-11 21-15 34-5 14-7 27-7 40 0 42 12 74 36 98s58 35 101 35c11 0 23-2 36-6 12-4 23-9 34-16s20-14 27-20c8-6 15-12 22-19 7 7 14 13 22 19 7 6 16 13 27 20s22 12 34 16c13 4 25 6 36 6 43 0 77-11 101-35s36-56 36-98-22-85-65-129l-178-171c-4-4-8-5-13-5z"/><glyph unicode="F" d="M475 82v220c-6-7-12-13-19-19-51-39-92-72-122-97-10-8-18-14-24-19-6-4-14-9-24-14-11-4-21-7-30-7s-19 3-30 7c-10 5-18 10-24 14-6 5-14 11-24 19-30 25-71 58-122 97-7 6-13 12-19 19v-220c0-2 0-4 2-6s4-3 7-3h420c3 0 5 1 7 3s2 4 2 6zm0 301v10c0 3 0 4-1 4 0 0-1 1-1 2-1 2-2 3-3 3-1-1-2-1-4 0h-420c-3 0-5-1-7-2-2-2-2-4-2-7 0-32 14-59 42-81 36-29 75-59 114-91 1-1 5-3 10-8 6-5 10-8 13-11 4-2 8-5 13-9 5-3 10-6 14-8 5-1 9-2 13-2s8 1 13 2c4 2 9 5 14 8 5 4 9 7 13 9 3 3 7 6 13 11 5 5 9 7 10 8 39 32 78 62 114 91 11 8 20 19 29 33s13 26 13 38zm37 10v-311c0-12-4-23-13-32s-20-13-33-13h-420c-13 0-24 4-33 13s-13 20-13 32v311c0 13 4 23 13 32s20 14 33 14h420c13 0 24-5 33-14s13-19 13-32z"/><glyph unicode="G" d="M358 346l84 84-31 30-83-83zm128 84c0-5-2-10-5-13l-368-368c-3-3-7-5-12-5-6 0-10 2-13 5l-57 57c-3 3-5 8-5 13s2 9 5 13l368 367c3 4 7 5 12 5 6 0 10-1 13-5l57-56c3-4 5-8 5-13zm-386 54l28-9-28-8-9-28-8 28-28 8 28 9 8 28zm100-46l56-17-56-18-17-56-17 56-56 18 56 17 17 56zm266-137l28-8-28-9-9-28-8 28-28 9 28 8 8 28zm-183 183l28-9-28-8-9-28-8 28-28 8 28 9 8 28z"/><glyph unicode="H" d="M475 256c0-30-5-58-17-85s-27-51-47-70c-19-20-43-35-70-47s-55-17-85-17-58 5-85 17-51 27-70 47c-20 19-35 43-47 70s-17 55-17 85c0 35 7 67 23 98 15 31 36 56 64 77 8 6 18 9 28 7 10-1 18-6 23-14 7-8 9-17 7-27-1-10-6-18-14-24-18-14-33-31-43-52-10-20-15-42-15-65 0-20 4-39 11-57 8-18 18-33 32-46 13-14 28-24 46-32 18-7 37-11 57-11s39 4 57 11c18 8 33 18 46 32 14 13 24 28 32 46 7 18 11 37 11 57 0 23-5 45-15 65-10 21-25 38-43 52-8 6-13 14-14 24-2 10 0 19 7 27 5 8 13 13 24 14 10 2 19-1 27-7 28-21 49-46 64-77 16-31 23-63 23-98zm-182 219v-182c0-10-4-19-11-26-8-7-16-11-26-11s-18 4-26 11c-7 7-11 16-11 26v182c0 10 4 19 11 26 8 7 16 11 26 11s18-4 26-11c7-7 11-16 11-26z"/><glyph unicode="I" d="M165 128c0-15-6-28-16-39-11-11-24-16-39-16-16 0-28 5-39 16s-16 24-16 39 5 28 16 39 23 16 39 16c15 0 28-5 39-16 10-11 16-24 16-39zm146-35c0-5-1-10-5-14-3-4-8-6-13-6h-39c-5 0-9 2-12 5-4 3-6 7-6 12-4 43-22 81-53 112s-68 48-112 52c-4 1-8 3-11 6-4 3-5 8-5 12v39c0 5 2 10 6 13 3 4 7 5 12 5h2c30-2 59-10 87-23s52-30 74-52c22-21 39-46 52-74s20-57 23-87zm146-1c1-5-1-9-5-13-3-4-8-6-13-6h-41c-5 0-9 2-13 5-3 3-5 8-5 12-3 41-12 80-29 117s-39 69-66 96-59 49-96 66-76 27-117 29c-5 0-9 2-12 6-3 3-5 8-5 12v41c0 5 2 10 6 13 3 4 7 5 12 5h1c50-2 98-13 143-34 46-20 86-48 122-84 35-35 63-76 84-121 20-46 32-94 34-144z"/><glyph unicode="J" d="M110 183c0 10-4 19-11 26s-16 10-26 10-19-3-26-10-10-16-10-26 3-19 10-26 16-11 26-11 19 4 26 11 11 16 11 26zm55 128c0 10-4 19-11 26s-16 10-26 10-19-3-26-10-11-16-11-26 4-19 11-26 16-11 26-11 19 4 26 11 11 16 11 26zm122-138l29 110c1 5 0 9-2 13-3 5-7 8-11 9-5 1-10 1-14-2-5-3-7-6-9-11l-29-109c-11-1-21-6-30-13s-15-17-18-28c-4-15-2-29 6-42 7-13 18-21 33-25s29-2 42 6c13 7 21 18 25 33 3 11 3 23-2 33-4 11-11 20-20 26zm188 10c0 10-3 19-10 26s-16 10-26 10-19-3-26-10-11-16-11-26 4-19 11-26 16-11 26-11 19 4 26 11 10 16 10 26zm-182 183c0 10-4 18-11 26-7 7-16 10-26 10s-19-3-26-10c-7-8-11-16-11-26s4-19 11-26 16-11 26-11 19 4 26 11 11 16 11 26zm128-55c0 10-4 19-11 26s-16 10-26 10-19-3-26-10-11-16-11-26 4-19 11-26 16-11 26-11 19 4 26 11 11 16 11 26zm91-128c0-50-13-96-40-138-4-6-9-8-16-8h-400c-7 0-12 2-16 8-27 42-40 88-40 138 0 35 7 68 20 99 14 32 32 59 55 82s50 41 82 55c31 13 64 20 99 20s68-7 99-20c32-14 59-32 82-55s41-50 55-82c13-31 20-64 20-99z"/><glyph unicode="K" d="M494 327c0-4-3-9-8-14l-103-101 24-143v-5c0-4-1-8-3-10-2-3-4-5-8-5s-8 2-12 4l-128 67-128-67c-4-2-8-4-12-4s-7 2-9 5c-2 2-3 6-3 10 0 1 0 3 1 5l24 143-104 101c-4 6-7 10-7 14 0 7 6 12 16 13l144 21 64 130c4 8 8 12 14 12s10-4 14-12l64-130 144-21c10-1 16-6 16-13z"/><glyph unicode="L" d="M366 503v-383l-129-67c-4-2-8-4-11-4-4 0-7 2-9 5-2 2-3 6-3 10 0 1 0 3 1 5l24 143-104 101c-5 6-7 10-7 14 0 7 5 12 16 13l143 21 65 130c3 8 8 12 14 12z"/><glyph unicode="M" d="M102 77c0 13 6 25 16 36 10 10 22 15 36 15s26-5 36-15c10-11 15-23 15-36 0-15-5-27-15-37-10-9-22-14-36-14s-26 5-36 14c-10 10-16 22-16 37m256 0c0 13 6 25 16 36 10 10 22 15 36 15s26-5 36-15c10-11 15-23 15-36 0-15-5-27-15-37-10-9-22-14-36-14s-26 5-36 14c-10 10-16 22-16 37m-164 121c-13-4-19-8-18-12 1-5 8-7 23-7h287v-39c0-7-3-10-10-10h-335c-7 0-10 3-10 10v39l-5 24-50 232h-50v41c0 7 3 10 10 10h80c7 0 10-3 10-10v-44h360v-140c0-8-3-12-9-13l-283-81"/><glyph unicode="N" d="M389 330c34 0 63-12 87-35s36-52 36-85c0-34-12-62-36-85s-53-35-87-35h-296c-25 0-47 9-65 27-19 17-28 39-28 63 0 25 9 47 27 65 18 17 40 26 66 26h5c3 0 5-1 5-1 0 4-1 11-1 20 0 37 14 68 40 94 27 26 59 39 97 39 30 0 58-9 82-27 23-17 39-40 48-68 9 1 16 2 20 2"/><glyph unicode="O" d="M431 389l4-2c13-7 23-18 31-32 7-13 10-29 10-49 0-44-19-80-56-107-36-28-89-41-157-41h-15c-6 0-11-2-17-6-5-5-9-9-10-15l-18-80c-4-14-13-21-27-21h-54c-6 0-11 2-15 6-3 5-4 10-3 15l3 13h35c6 0 11 2 17 6 5 5 8 10 10 15l18 80c4 14 13 20 27 20h15c67 0 119 14 157 41 37 28 56 64 56 108 0 19-4 35-11 49m-297-264c-1-6-4-10-9-15-6-4-11-7-17-7h-55c-6 0-11 3-14 7-3 5-4 9-2 15l77 331c3 13 12 20 26 20h115c26 0 48-1 64-4 19-4 36-10 48-17 13-9 23-19 30-32s10-29 10-49c0-45-18-80-56-108-36-27-88-41-156-41h-16c-5 0-11-2-16-6-6-4-9-9-10-14l-19-80m45 191c-1-5 0-10 3-14 4-4 8-6 13-6h15c29 0 52 6 68 18 17 12 25 29 25 51 0 15-5 25-15 32-11 7-27 11-49 11h-17c-14 0-23-7-27-21l-16-71"/><glyph unicode="P" d="M484 362c-11-63-40-123-87-179-48-57-90-97-126-122-14-9-28-12-41-8-14 3-25 10-34 19s-17 20-22 31c-6 11-19 52-40 123-21 70-34 109-38 114-5 4-12 5-19 3-8-3-15-6-23-11l-10-7-19 25c6 7 14 16 24 27 9 11 27 26 51 45 25 20 46 31 64 35 10 2 19 1 27-4 8-4 14-10 18-18 5-7 9-18 12-31 3-12 6-24 8-35 1-11 3-24 6-39 2-14 4-26 6-34 5-18 9-32 11-41 3-9 5-18 9-28 3-9 6-16 9-20 3-3 6-5 9-5 14 0 35 28 65 85 14 26 15 47 3 63-12 17-32 17-57 1 7 43 31 75 71 96 36 19 67 20 93 5 28-16 38-46 30-90"/><glyph unicode="Q" d="M196 428l61-209 62 209h149v-22l-54-108c22-7 42-20 53-38 12-19 19-41 19-66 0-31-7-57-23-78-17-21-37-32-64-32-19 0-36 7-51 19-14 13-25 30-32 51l35 15c5-13 11-24 20-31 8-8 18-11 29-11 12 0 22 6 30 20 8 13 12 29 12 47 0 21-4 43-13 54-10 14-26 26-48 26h-29v8l72 107h-76l-86-287h-5l-63 213-63-213h-4l-101 326h44l61-209 41 140-20 69z"/><glyph unicode="R" d="M362 435c6-14 10-36 4-53 24-20 32-69 21-109 33-3 73 1 99-9-24 3-57 9-88 7-6-1-15 0-15-8 37-3 73-6 102-16-29 5-65 13-102 14-15-30-45-45-87-48 4-10 13-14 15-29 3-24-5-59 3-74 4-8 10-8 14-15-10-12-35 2-38 15-5 22 7 56-6 70 1-23-6-57 1-79 2-8 10-11 8-19-48-5-28 62-36 102-7-1-4-11-4-16 0-38 8-91-34-86-1 8 6 11 8 18 8 22-1 54 3 80-16-11 1-53-9-75-5-12-24-17-37-12 1 9 11 8 15 17 6 11 0 29 2 46-29-6-52 1-63 19-5 9-6 18-13 26-5 7-15 8-18 18 36 9 38-37 71-39 10 0 15 3 24 6 3 11 8 20 16 26-40 6-74 18-89 49-37-2-71-7-102-15 28 11 63 14 101 16-3 13-22 9-34 9-22-1-51-4-68-7 25 9 62 8 96 8-10 33-7 86 17 106-7 17-5 44 4 57 26-1 42-12 58-23 20 5 42 8 69 7 12-1 24-6 33-5s18 10 26 14c11 5 21 7 33 7z"/></font>
</defs>
</svg>
